<?xml version="1.0" encoding="UTF-8" standalone="no"?>
<!DOCTYPE svg PUBLIC "-//W3C//DTD SVG 1.1//EN" "http://www.w3.org/Graphics/SVG/1.1/DTD/svg11.dtd">
<svg version="1.1" xmlns="http://www.w3.org/2000/svg" xmlns:xlink="http://www.w3.org/1999/xlink" preserveAspectRatio="xMidYMid meet" viewBox="0 0 640 640" width="640" height="640"><defs><path d="M87.75 365.66L302.89 365.66L302.89 150.08L87.75 150.08L87.75 365.66ZM305.14 370.16C173.35 370.16 100.14 370.16 85.5 370.16C84.26 370.16 83.25 369.15 83.25 367.91C83.25 345.9 83.25 169.84 83.25 147.83C83.25 146.59 84.26 145.58 85.5 145.58C107.46 145.58 283.18 145.58 305.14 145.58C306.38 145.58 307.39 146.59 307.39 147.83C307.39 169.84 307.39 345.9 307.39 367.91C307.39 369.15 306.38 370.16 305.14 370.16" id="i2cpgudH7"></path><path d="M366.84 304.4C235.05 304.4 161.84 304.4 147.19 304.4C145.95 304.4 144.94 303.39 144.94 302.15C144.94 294.59 144.94 234.1 144.94 226.54C144.94 225.29 145.95 224.29 147.19 224.29C152.79 224.29 197.57 224.29 203.16 224.29C204.4 224.29 205.41 225.29 205.41 226.54C205.41 227.78 204.4 228.79 203.16 228.79C199.58 228.79 181.68 228.79 149.44 228.79L149.44 299.9L364.59 299.9L364.59 84.32L149.44 84.32C149.44 122.42 149.44 143.6 149.44 147.83C149.44 149.07 148.44 150.08 147.19 150.08C145.95 150.08 144.94 149.07 144.94 147.83C144.94 141.25 144.94 88.64 144.94 82.07C144.94 80.82 145.95 79.82 147.19 79.82C169.16 79.82 344.87 79.82 366.84 79.82C368.08 79.82 369.09 80.82 369.09 82.07C369.09 104.07 369.09 280.14 369.09 302.15C369.09 303.39 368.08 304.4 366.84 304.4" id="a7oU3HbzX"></path><path d="M223.39 226.54C223.39 230 226.19 232.81 229.64 232.81C233.09 232.81 235.9 230 235.9 226.54C235.9 223.08 233.09 220.26 229.64 220.26C226.19 220.26 223.39 223.08 223.39 226.54ZM229.64 237.31C223.71 237.31 218.89 232.48 218.89 226.54C218.89 220.6 223.71 215.76 229.64 215.76C235.57 215.76 240.4 220.6 240.4 226.54C240.4 232.48 235.57 237.31 229.64 237.31" id="a1evAF1a91"></path></defs><g><g><g><use xlink:href="#i2cpgudH7" opacity="1" fill="#100f0d" fill-opacity="1"></use><g><use xlink:href="#i2cpgudH7" opacity="1" fill-opacity="0" stroke="#000000" stroke-width="1" stroke-opacity="0"></use></g></g><g><use xlink:href="#a7oU3HbzX" opacity="1" fill="#100f0d" fill-opacity="1"></use><g><use xlink:href="#a7oU3HbzX" opacity="1" fill-opacity="0" stroke="#000000" stroke-width="1" stroke-opacity="0"></use></g></g><g><use xlink:href="#a1evAF1a91" opacity="1" fill="#100f0d" fill-opacity="1"></use><g><use xlink:href="#a1evAF1a91" opacity="1" fill-opacity="0" stroke="#000000" stroke-width="1" stroke-opacity="0"></use></g></g></g></g></svg>